<svg xmlns="http://www.w3.org/2000/svg" viewBox="0 0 130.16 130.16"><defs><style>.cls-1{fill:#05357f;}.cls-2,.cls-3{fill:none;}.cls-2{stroke:#cbcbcb;stroke-miterlimit:10;stroke-width:1.95px;stroke-dasharray:2.78;opacity:0.8;}.cls-3{stroke:#f1f1f1;stroke-linecap:round;stroke-linejoin:round;stroke-width:8.77px;}</style></defs><title>자산 17</title><g id="레이어_2" data-name="레이어 2"><g id="레이어_1-2" data-name="레이어 1"><rect class="cls-1" width="130.16" height="130.16"/><path class="cls-2" d="M65.08,113,23.52,89V41L65.08,17l41.56,24V89Zm41.56-24.07L23.52,41.09m83.12,0L23.52,88.93M64.78,17.16V65m.3,48.14v-49"/><path class="cls-3" d="M23.22,41,64.48,17.09l42.76,23.62M48.3,26.47,72.56,41.91m-49.64-.6V88.55L64.78,64.63,22.92,88.55,50.43,104.7M64.78,86.81,46.24,76.59m60.4,12,.6-47.84L85.11,76.59l-20.33-12m0,0v48.44"/></g></g></svg>